<?xml version="1.0" encoding="UTF-8" standalone="no"?>
<!-- Created with Inkscape (http://www.inkscape.org/) -->

<svg
   xmlns:dc="http://purl.org/dc/elements/1.1/"
   xmlns:cc="http://creativecommons.org/ns#"
   xmlns:rdf="http://www.w3.org/1999/02/22-rdf-syntax-ns#"
   xmlns:svg="http://www.w3.org/2000/svg"
   xmlns="http://www.w3.org/2000/svg"
   xmlns:xlink="http://www.w3.org/1999/xlink"
   xmlns:sodipodi="http://sodipodi.sourceforge.net/DTD/sodipodi-0.dtd"
   xmlns:inkscape="http://www.inkscape.org/namespaces/inkscape"
   width="58.281513mm"
   height="51.928356mm"
   viewBox="0 0 58.281513 51.928356"
   version="1.1"
   id="svg4571"
   inkscape:version="0.92.1 r"
   sodipodi:docname="dessin-almost.svg">
  <defs
     id="defs4565">
    <linearGradient
       gradientTransform="translate(40.40686,115.30963)"
       inkscape:collect="always"
       xlink:href="#linearGradient4634"
       id="linearGradient4636"
       x1="91.395866"
       y1="81.939796"
       x2="146.44615"
       y2="81.939796"
       gradientUnits="userSpaceOnUse" />
    <linearGradient
       inkscape:collect="always"
       id="linearGradient4634">
      <stop
         style="stop-color:#666666;stop-opacity:1;"
         offset="0"
         id="stop4630" />
      <stop
         style="stop-color:#666666;stop-opacity:0;"
         offset="1"
         id="stop4632" />
    </linearGradient>
  </defs>
  <sodipodi:namedview
     id="base"
     pagecolor="#ffffff"
     bordercolor="#666666"
     borderopacity="1.0"
     inkscape:pageopacity="0.0"
     inkscape:pageshadow="2"
     inkscape:zoom="1.979899"
     inkscape:cx="64.726434"
     inkscape:cy="85.971786"
     inkscape:document-units="mm"
     inkscape:current-layer="layer1"
     showgrid="false"
     fit-margin-top="0"
     fit-margin-left="0"
     fit-margin-right="0"
     fit-margin-bottom="0"
     inkscape:window-width="1680"
     inkscape:window-height="989"
     inkscape:window-x="0"
     inkscape:window-y="0"
     inkscape:window-maximized="1" />
  <metadata
     id="metadata4568">
    <rdf:RDF>
      <cc:Work
         rdf:about="">
        <dc:format>image/svg+xml</dc:format>
        <dc:type
           rdf:resource="http://purl.org/dc/dcmitype/StillImage" />
        <dc:title></dc:title>
      </cc:Work>
    </rdf:RDF>
  </metadata>
  <g
     inkscape:label="Calque 1"
     inkscape:groupmode="layer"
     id="layer1"
     transform="translate(-40.406862,-115.30963)">
    <g
       transform="translate(-50.623465,47.587942)"
       style="display:inline"
       id="g4953">
      <path
         id="path4555-76"
         transform="scale(0.26458333)"
         d="m 526.41406,255.95703 a 13.720016,34.5844 76.829406 0 0 -19.75781,2.60742 13.720016,34.5844 76.829406 0 0 -26.47656,13.9375 13.720016,34.584401 76.829406 0 1 28.29101,6.25977 13.720016,34.584401 76.829406 0 1 -1.98242,7.57617 13.720016,34.5844 76.829406 0 0 10.17774,-1.97851 13.720016,34.5844 76.829406 0 0 28.42382,-21.50782 13.720016,34.5844 76.829406 0 0 -18.67578,-6.89453 z"
         style="fill:#dadada;fill-rule:evenodd;stroke-width:3.76982999"
         inkscape:connector-curvature="0" />
      <path
         id="path4555-24"
         transform="scale(0.26458333)"
         d="m 510.50391,265.04883 a 13.720016,34.5844 76.829406 0 0 -19.75782,2.60742 13.720016,34.5844 76.829406 0 0 -8.54101,2.69141 13.720016,34.5844 76.829406 0 0 -1.98047,2.15039 13.720016,34.5844 76.829406 0 1 28.24609,6.26367 13.720016,34.5844 76.829406 0 1 -1.9707,7.5625 13.720016,34.5844 76.829406 0 0 10.16602,-1.96484 13.720016,34.5844 76.829406 0 0 8.50586,-2.6836 13.720016,34.5844 76.829406 0 0 4.00781,-9.73242 13.720016,34.5844 76.829406 0 0 -18.67578,-6.89453 z"
         style="fill:#bebebe;fill-rule:evenodd;stroke-width:3.76982999"
         inkscape:connector-curvature="0" />
    </g>
    <path
       style="display:inline;fill:url(#linearGradient4636);fill-opacity:1;fill-rule:evenodd;stroke:none;stroke-width:0.26458332px;stroke-linecap:butt;stroke-linejoin:miter;stroke-opacity:1"
       d="m 41.049984,133.0107 3.541322,-2.43883 c 7.417781,3.59077 25.413202,4.0784 51.169263,-6.25652 -24.834033,13.20835 -49.154838,10.93987 -54.710585,8.69535 z"
       id="path4620"
       inkscape:connector-curvature="0"
       sodipodi:nodetypes="cccc" />
    <g
       transform="translate(-50.623465,47.587942)"
       style="display:inline"
       id="g5018">
      <path
         id="path4555-8"
         transform="scale(0.26458333)"
         d="m 486.76562,267.57422 a 13.720016,34.5844 76.829406 0 0 -19.75781,2.60742 13.720016,34.5844 76.829406 0 0 -17.36523,6.74414 13.720016,34.584401 76.829406 0 1 18.42187,6.88672 13.720016,34.584401 76.829406 0 1 -11.09375,14.76953 13.720016,34.5844 76.829406 0 0 20.04688,-2.60547 13.720016,34.5844 76.829406 0 0 28.42383,-21.50781 13.720016,34.5844 76.829406 0 0 -18.67579,-6.89453 z"
         style="display:inline;fill:#b3b2b2;fill-rule:evenodd;stroke-width:3.76982999"
         inkscape:connector-curvature="0" />
      <path
         id="path4555-5"
         transform="scale(0.26458333)"
         d="m 471.61328,275.9082 a 13.720016,34.5844 76.829406 0 0 -15.1289,1.56446 13.720016,34.5844 76.829406 0 1 11.58007,6.33984 13.720016,34.5844 76.829406 0 1 -11.07617,14.75977 13.720016,34.5844 76.829406 0 0 20.0293,-2.59571 13.720016,34.5844 76.829406 0 0 8.38086,-2.64062 13.720016,34.5844 76.829406 0 0 4.89062,-10.53516 13.720016,34.5844 76.829406 0 0 -18.67578,-6.89258 z"
         style="display:inline;fill:#9d9c9b;fill-rule:evenodd;stroke-width:3.76982999"
         inkscape:connector-curvature="0" />
    </g>
    <g
       transform="translate(-50.623465,47.587942)"
       style="display:inline"
       id="g5068">
      <path
         id="path4555-7"
         transform="scale(0.26458333)"
         d="m 445.60156,272.37305 a 13.720016,34.584401 76.829406 0 0 -19.75781,2.60547 13.720016,34.584401 76.829406 0 0 -5.66406,1.66796 13.720016,34.584401 76.829406 0 1 4.04297,4.0625 13.720016,34.584401 76.829406 0 1 -22.79688,19.84766 13.720016,34.584401 76.829406 0 0 34.42774,0.2168 13.720016,34.584401 76.829406 0 0 28.42382,-21.50782 13.720016,34.584401 76.829406 0 0 -18.67578,-6.89257 z"
         style="display:inline;fill:#706f6f;fill-rule:evenodd;stroke-width:3.76982999"
         inkscape:connector-curvature="0" />
      <path
         id="path4555-9"
         transform="scale(0.26458333)"
         d="m 428.68164,281.7168 a 13.720016,34.5844 76.829406 0 0 -4.17578,0.1289 13.720016,34.5844 76.829406 0 1 -23.04883,18.69922 13.720016,34.5844 76.829406 0 0 34.39649,0.22852 13.720016,34.5844 76.829406 0 0 7.3164,-2.25977 13.720016,34.5844 76.829406 0 0 4.1875,-9.90429 13.720016,34.5844 76.829406 0 0 -18.67578,-6.89258 z"
         style="display:inline;fill:#646362;fill-rule:evenodd;stroke-width:3.76982999"
         inkscape:connector-curvature="0" />
    </g>
    <path
       style="display:inline;fill:#1faddd;fill-rule:evenodd;stroke-width:0.99933434"
       id="path4555"
       sodipodi:type="arc"
       sodipodi:cx="8.966609"
       sodipodi:cy="132.28729"
       sodipodi:rx="9.1439123"
       sodipodi:ry="3.6465392"
       sodipodi:start="3.1279267"
       sodipodi:end="3.1257384"
       d="m -0.17644948,132.33712 a 9.1439123,3.6465392 0 0 1 9.01310018,-3.696 9.1439123,3.6465392 0 0 1 9.2728743,3.59235 9.1439123,3.6465392 0 0 1 -9.002954,3.69993 9.1439123,3.6465392 0 0 1 -9.28272514,-3.5883"
       sodipodi:open="true"
       transform="matrix(0.96983974,-0.24374348,0.32727651,0.94492861,0,0)"
       inkscape:transform-center-x="-1.6471273"
       inkscape:transform-center-y="2.6092503" />
    <path
       style="display:inline;fill:#1faddd;fill-opacity:1;fill-rule:evenodd;stroke:none;stroke-width:0.01;stroke-linecap:butt;stroke-linejoin:miter;stroke-miterlimit:4;stroke-dasharray:none;stroke-opacity:1"
       d="m 53.149667,143.64659 0.13625,-2.51756 -9.107079,-0.0428 -0.859897,9.01589 9.233706,0.002 0.19442,-3.04271 2.98791,0.0194 c 0,0 0.0992,2.05121 -0.16536,3.0434 -0.10088,0.59463 -0.62437,2.21119 -2.04651,2.27733 l -10.925408,0.0991 c -0.467722,0 -2.058546,-0.29431 -2.190837,-1.3326 l 0.671145,-10.40295 c 0.04677,-0.39756 0.99855,-2.15776 2.364227,-2.01343 l 11.254473,0.0702 c 0,0 1.07703,0.11859 1.53035,1.17125 l -0.0621,3.65906 z"
       id="path5143"
       inkscape:connector-curvature="0"
       sodipodi:nodetypes="ccccccccccccccccc" />
    <path
       inkscape:connector-curvature="0"
       style="display:inline;fill:#1faddd;fill-opacity:1;fill-rule:evenodd;stroke:none;stroke-width:0.01;stroke-linecap:butt;stroke-linejoin:miter;stroke-miterlimit:4;stroke-dasharray:none;stroke-opacity:1"
       d="m 60.624009,138.76687 -1.2392,13.7511 h 2.923334 l 0.467672,-5.51904 h 9.775115 c 0.654809,-0.0935 2.315331,-0.25699 2.642732,-2.43189 l 0.327628,-3.64836 c 0,0 -0.0236,-1.87117 -1.871204,-2.15181 z m 2.759522,2.19832 9.003585,0.0233 -0.04651,2.6665 c 0,0 -0.02331,1.12215 -0.841809,1.16892 h -8.419123 z"
       id="path5147" />
    <path
       style="display:inline;fill:#1faddd;fill-opacity:1;fill-rule:evenodd;stroke:none;stroke-width:0.01;stroke-linecap:butt;stroke-linejoin:miter;stroke-miterlimit:4;stroke-dasharray:none;stroke-opacity:1"
       d="m 79.650748,138.77518 -1.322911,13.62604 14.419792,-0.0331 0.264588,-2.34818 H 81.602058 l 0.39687,-3.63802 h 6.449219 l 0.264591,-2.14974 -6.58151,0.0331 0.363799,-3.43958 11.219392,0.0661 0.204438,-2.11466 z"
       id="path5152"
       inkscape:connector-curvature="0"
       sodipodi:nodetypes="ccccccccccccc" />
    <text
       xml:space="preserve"
       style="font-style:italic;font-variant:normal;font-weight:normal;font-stretch:normal;font-size:3.17518377px;line-height:4.39848089px;font-family:Arial;-inkscape-font-specification:'Arial, Italic';font-variant-ligatures:normal;font-variant-caps:normal;font-variant-numeric:normal;font-feature-settings:normal;text-align:start;letter-spacing:0px;word-spacing:0px;writing-mode:lr-tb;text-anchor:start;display:inline;fill:#666666;fill-opacity:1;stroke:none;stroke-width:0.26458329px;stroke-linecap:butt;stroke-linejoin:miter;stroke-opacity:1;"
       x="42.890339"
       y="151.88025"
       id="text5171"
       transform="scale(0.96100159,1.040581)"><tspan
         sodipodi:role="line"
         id="tspan5169"
         x="42.890339"
         y="151.88025"
         style="font-style:italic;font-variant:normal;font-weight:normal;font-stretch:normal;font-size:3.17518377px;font-family:Arial;-inkscape-font-specification:'Arial, Italic';font-variant-ligatures:normal;font-variant-caps:normal;font-variant-numeric:normal;font-feature-settings:normal;text-align:start;writing-mode:lr-tb;text-anchor:start;stroke-width:0.26458329px;fill:#666666;">ÉCOLE SUPÉRIEURE</tspan><tspan
         sodipodi:role="line"
         x="42.890339"
         y="156.27873"
         style="font-style:italic;font-variant:normal;font-weight:normal;font-stretch:normal;font-size:3.17518377px;font-family:Arial;-inkscape-font-specification:'Arial, Italic';font-variant-ligatures:normal;font-variant-caps:normal;font-variant-numeric:normal;font-feature-settings:normal;text-align:start;writing-mode:lr-tb;text-anchor:start;stroke-width:0.26458329px;fill:#666666;"
         id="tspan5173">DE CHIMIE PHYSIQUE ÉLECTRONIQUE</tspan><tspan
         sodipodi:role="line"
         x="42.890339"
         y="160.67722"
         style="font-style:italic;font-variant:normal;font-weight:normal;font-stretch:normal;font-size:3.17518377px;font-family:Arial;-inkscape-font-specification:'Arial, Italic';font-variant-ligatures:normal;font-variant-caps:normal;font-variant-numeric:normal;font-feature-settings:normal;text-align:start;writing-mode:lr-tb;text-anchor:start;stroke-width:0.26458329px;fill:#666666;"
         id="tspan5175">DE LYON</tspan></text>
  </g>
</svg>
